<?xml version="1.0" encoding="UTF-8" standalone="no"?>
<svg
   xmlns:dc="http://purl.org/dc/elements/1.1/"
   xmlns:cc="http://creativecommons.org/ns#"
   xmlns:rdf="http://www.w3.org/1999/02/22-rdf-syntax-ns#"
   xmlns:svg="http://www.w3.org/2000/svg"
   xmlns="http://www.w3.org/2000/svg"
   xmlns:sodipodi="http://sodipodi.sourceforge.net/DTD/sodipodi-0.dtd"
   xmlns:inkscape="http://www.inkscape.org/namespaces/inkscape"
   version="1.1"
   id="svg833"
   xml:space="preserve"
   width="470.87466"
   height="470.86533"
   viewBox="0 0 470.87466 470.86533"
   sodipodi:docname="R.svg"
   inkscape:version="1.0.1 (c497b03c, 2020-09-10)"><metadata
     id="metadata839"><rdf:RDF><cc:Work
         rdf:about=""><dc:format>image/svg+xml</dc:format><dc:type
           rdf:resource="http://purl.org/dc/dcmitype/StillImage" /><dc:title></dc:title></cc:Work></rdf:RDF></metadata><defs
     id="defs837"><clipPath
       clipPathUnits="userSpaceOnUse"
       id="clipPath14271"><path
         d="m 6635.63,8232.99 v 0 194.949 0 z"
         id="path14269" /></clipPath></defs><sodipodi:namedview
     pagecolor="#ffffff"
     bordercolor="#666666"
     borderopacity="1"
     objecttolerance="10"
     gridtolerance="10"
     guidetolerance="10"
     inkscape:pageopacity="0"
     inkscape:pageshadow="2"
     inkscape:window-width="1680"
     inkscape:window-height="1022"
     id="namedview835"
     showgrid="false"
     inkscape:pagecheckerboard="true"
     fit-margin-top="0"
     fit-margin-left="0"
     fit-margin-right="0"
     fit-margin-bottom="0"
     inkscape:zoom="0.82928424"
     inkscape:cx="210.51507"
     inkscape:cy="293.13448"
     inkscape:window-x="0"
     inkscape:window-y="0"
     inkscape:window-maximized="0"
     inkscape:current-layer="g843"
     inkscape:document-rotation="0" /><g
     id="g841"
     inkscape:groupmode="layer"
     inkscape:label="ink_ext_XXXXXX"
     transform="matrix(1.3333333,0,0,-1.3333333,-775.02665,1369.6)"><g
       id="g843"
       transform="scale(0.1)"><path
         d="m 7410.85,8498.32 c -283.1,-26.7 -546.87,-120.55 -775.22,-265.34 v 273.26 c 0,519.84 422.96,942.93 942.79,942.93 h 942.92 c 0,-462.75 -335.05,-848.74 -775.33,-927.95 -54.41,-9.83 -110.38,-14.98 -167.59,-14.98 -56.52,0 -112.38,-2.67 -167.57,-7.92 m 1933.41,950.85 V 10272 H 7578.42 C 6604.79,10272 5812.7,9479.89 5812.7,8506.24 V 6740.51 h 822.93 c 0,462.75 335.04,848.63 775.22,927.84 54.4,9.83 110.38,14.98 167.57,14.98 57.21,0 113.18,-5.15 167.59,-14.98 100.66,-18.1 195.73,-52.17 282.65,-99.66 293.26,-159.97 492.68,-471.11 492.68,-828.18 h 822.92 c 0,482.87 -194.72,920.92 -509.76,1239.99 -39.56,39.99 -80.89,78.09 -124.02,114.29 387.1,324.21 633.78,810.96 633.78,1354.38"
         style="fill:#a5b4fb;fill-opacity:1;fill-rule:nonzero;stroke:none;stroke-width:1"
         id="path14263" /><g
         id="g14265"><g
           id="g14267"
           clip-path="url(#clipPath14271)"><path
             d="m 6635.63,8427.94 v 0 -194.95"
             style="fill:#d9d9d9;fill-opacity:1;fill-rule:nonzero;stroke:none"
             id="path14273" /></g></g><path
         d="m 5812.7,6740.53 v 787.17 c 117.98,263.55 293.16,496.04 509.79,681.38 96.63,82.9 201.43,156.29 313.14,218.86 v -194.95 c -66.13,-41.9 -129.37,-88.15 -189.14,-138.2 C 6059.38,7770.58 5812.7,7283.94 5812.7,6740.53"
         style="fill:#6277d8;fill-opacity:1;fill-rule:nonzero;stroke:none"
         id="path14275" /><path
         d="m 8834.49,7980.5 c -39.55,39.99 -80.88,78.09 -124.01,114.29 0.01,0 0.01,0 0.01,0 43.12,-36.19 84.46,-74.29 124.01,-114.28 v 0"
         style="fill:#d9d9d9;fill-opacity:1;fill-rule:nonzero;stroke:none"
         id="path14277" /><path
         d="m 8028.67,7568.71 c -86.93,47.48 -182,81.55 -282.66,99.65 -54.41,9.83 -110.37,14.97 -167.57,14.97 56.53,0 112.38,2.68 167.57,7.93 365,34.41 698.03,180.42 964.48,403.53 43.12,-36.2 84.45,-74.3 124,-114.29 -228.8,-195.96 -503.62,-339.51 -805.82,-411.79"
         style="fill:#6277d8;fill-opacity:1;fill-rule:nonzero;stroke:none"
         id="path14279" /></g></g></svg>
